<svg id="svg" version="1.1" xmlns="http://www.w3.org/2000/svg" xmlns:xlink="http://www.w3.org/1999/xlink" width="400" height="402.5157232704402" viewBox="0, 0, 400,402.5157232704402"><g id="svgg"><path id="path0" d="M0.000 201.800 L 0.000 396.800 0.922 396.800 C 2.901 396.800,8.795 391.941,12.079 387.600 C 13.627 385.555,16.436 382.698,17.692 381.893 C 18.292 381.508,19.079 380.609,19.440 379.896 C 19.801 379.183,44.960 353.732,75.348 323.338 C 105.737 292.943,131.734 266.717,133.119 265.056 C 134.505 263.396,136.925 260.814,138.497 259.319 C 140.070 257.823,142.849 255.070,144.674 253.200 C 146.499 251.330,158.119 239.633,170.496 227.206 C 195.138 202.465,195.223 202.374,194.905 201.159 C 194.679 200.295,189.072 194.400,188.475 194.400 C 188.288 194.400,187.564 193.519,186.866 192.442 C 186.168 191.365,161.792 166.646,132.698 137.511 C 68.370 73.092,55.777 60.397,54.534 58.707 C 53.702 57.577,38.995 42.565,36.938 40.747 C 36.532 40.388,33.140 37.002,29.400 33.221 C 25.660 29.441,21.880 25.658,21.000 24.814 C 20.120 23.970,18.916 22.767,18.324 22.140 C 17.732 21.513,16.922 20.703,16.524 20.339 C 16.126 19.976,13.280 17.130,10.200 14.015 C 4.945 8.701,2.403 6.800,0.549 6.800 C 0.084 6.800,0.000 36.758,0.000 201.800 M396.600 8.340 C 394.184 9.488,385.103 18.072,383.208 21.000 C 382.780 21.660,375.179 29.504,366.315 38.430 C 357.452 47.357,349.991 54.917,349.736 55.230 C 349.481 55.544,347.951 57.094,346.336 58.675 C 344.721 60.257,339.671 65.297,335.114 69.875 C 330.557 74.454,326.597 78.407,326.314 78.661 C 326.031 78.914,316.942 88.004,306.115 98.861 C 295.289 109.717,285.119 119.902,283.515 121.493 C 276.149 128.804,238.245 167.098,231.800 173.740 C 227.840 177.821,224.016 181.574,223.303 182.080 C 222.589 182.586,222.004 183.211,222.003 183.469 C 222.001 183.727,221.117 184.717,220.038 185.669 C 218.960 186.621,217.369 188.300,216.504 189.400 C 215.639 190.500,212.743 193.560,210.068 196.200 C 207.049 199.180,205.203 201.306,205.202 201.808 C 205.201 202.344,212.941 210.351,228.211 225.608 C 240.867 238.254,253.602 251.017,256.511 253.972 C 259.420 256.926,263.330 260.824,265.200 262.634 C 267.070 264.443,271.030 268.393,274.000 271.410 C 276.970 274.427,282.069 279.529,285.331 282.748 C 292.432 289.755,296.032 293.385,304.022 301.600 C 307.338 305.010,311.705 309.493,313.726 311.562 C 315.747 313.632,317.712 315.792,318.092 316.362 C 319.237 318.077,393.185 391.936,396.074 394.251 C 397.545 395.429,398.861 396.575,398.998 396.796 C 399.135 397.018,399.417 397.200,399.624 397.200 C 399.858 397.200,400.000 323.780,400.000 202.200 C 400.000 46.466,399.899 7.200,399.500 7.200 C 399.225 7.200,397.920 7.714,396.600 8.340 " stroke="none" fill="#3c44cb" fill-rule="evenodd"></path><path id="path1" d="M0.000 6.000 C 0.000 6.440,0.247 6.800,0.549 6.800 C 2.403 6.800,4.945 8.701,10.200 14.015 C 13.280 17.130,16.126 19.976,16.524 20.339 C 16.922 20.703,17.732 21.513,18.324 22.140 C 18.916 22.767,20.120 23.970,21.000 24.814 C 21.880 25.658,25.660 29.441,29.400 33.221 C 33.140 37.002,36.532 40.388,36.938 40.747 C 38.995 42.565,53.702 57.577,54.534 58.707 C 55.777 60.397,68.370 73.092,132.698 137.511 C 161.792 166.646,186.168 191.365,186.866 192.442 C 187.564 193.519,188.288 194.400,188.475 194.400 C 189.072 194.400,194.679 200.295,194.905 201.159 C 195.223 202.374,195.138 202.465,170.496 227.206 C 158.119 239.633,146.499 251.330,144.674 253.200 C 142.849 255.070,140.070 257.823,138.497 259.319 C 136.925 260.814,134.505 263.396,133.119 265.056 C 131.734 266.717,105.737 292.943,75.348 323.338 C 44.960 353.732,19.801 379.183,19.440 379.896 C 19.079 380.609,18.292 381.508,17.692 381.893 C 16.436 382.698,13.627 385.555,12.079 387.600 C 8.795 391.941,2.901 396.800,0.922 396.800 C 0.164 396.800,0.000 397.014,0.000 398.000 C 0.000 399.315,0.429 399.529,1.200 398.600 C 1.474 398.270,1.962 398.000,2.286 398.000 C 3.359 398.000,12.800 389.642,12.800 388.692 C 12.800 387.952,26.150 374.418,78.584 322.002 C 108.183 292.414,132.400 268.018,132.400 267.789 C 132.400 267.560,134.785 265.022,137.700 262.148 C 140.615 259.275,145.998 253.791,149.661 249.962 C 153.325 246.133,165.519 233.820,176.759 222.600 C 187.999 211.380,197.197 201.927,197.198 201.594 C 197.199 201.260,195.040 198.833,192.400 196.200 C 189.760 193.567,187.600 191.255,187.600 191.063 C 187.600 190.870,163.795 166.858,134.700 137.703 C 105.605 108.548,75.860 78.601,68.600 71.155 C 31.851 33.463,5.891 7.759,3.259 6.457 C 0.272 4.980,0.000 4.941,0.000 6.000 M395.990 6.904 C 394.317 7.732,382.400 19.094,382.400 19.860 C 382.400 20.313,358.260 44.683,294.522 108.577 C 263.459 139.716,237.882 165.482,237.685 165.834 C 237.363 166.410,233.188 170.700,209.589 194.706 C 205.855 198.504,202.800 201.719,202.800 201.849 C 202.800 201.980,225.975 225.305,254.300 253.683 C 282.625 282.060,308.050 307.697,310.800 310.653 C 313.550 313.609,333.395 333.685,354.900 355.266 C 376.405 376.847,394.000 394.660,394.000 394.852 C 394.000 395.043,394.322 395.200,394.715 395.200 C 395.108 395.200,396.317 396.100,397.400 397.200 C 399.568 399.402,400.000 399.599,400.000 398.388 C 400.000 397.570,399.077 396.630,395.400 393.707 C 392.997 391.797,319.083 317.847,318.092 316.362 C 317.712 315.792,315.747 313.632,313.726 311.562 C 311.705 309.493,307.338 305.010,304.022 301.600 C 296.032 293.385,292.432 289.755,285.331 282.748 C 282.069 279.529,276.970 274.427,274.000 271.410 C 271.030 268.393,267.070 264.443,265.200 262.634 C 263.330 260.824,259.420 256.926,256.511 253.972 C 253.602 251.017,240.867 238.254,228.211 225.608 C 212.941 210.351,205.201 202.344,205.202 201.808 C 205.203 201.306,207.049 199.180,210.068 196.200 C 212.743 193.560,215.639 190.500,216.504 189.400 C 217.369 188.300,218.960 186.621,220.038 185.669 C 221.117 184.717,222.001 183.727,222.003 183.469 C 222.004 183.211,222.589 182.586,223.303 182.080 C 224.016 181.574,227.840 177.821,231.800 173.740 C 238.245 167.098,276.149 128.804,283.515 121.493 C 285.119 119.902,295.289 109.717,306.115 98.861 C 316.942 88.004,326.031 78.914,326.314 78.661 C 326.597 78.407,330.557 74.454,335.114 69.875 C 339.671 65.297,344.721 60.257,346.336 58.675 C 347.951 57.094,349.481 55.544,349.736 55.230 C 349.991 54.917,357.452 47.357,366.315 38.430 C 375.179 29.504,382.780 21.660,383.208 21.000 C 386.302 16.219,396.949 7.202,399.500 7.200 C 399.775 7.200,400.000 6.930,400.000 6.600 C 400.000 5.711,398.109 5.854,395.990 6.904 " stroke="none" fill="#5b515c" fill-rule="evenodd"></path><path id="path2" d="M0.000 2.200 C 0.000 4.264,0.060 4.400,0.974 4.400 C 3.537 4.400,4.812 5.342,12.880 13.200 C 18.735 18.902,42.412 42.520,43.449 43.692 C 43.696 43.972,46.515 46.772,49.713 49.915 C 52.911 53.058,55.970 56.210,56.510 56.918 C 57.050 57.626,59.680 60.364,62.354 63.003 C 71.826 72.350,80.333 81.042,83.100 84.200 C 84.642 85.960,91.076 92.530,97.398 98.800 C 103.720 105.070,109.524 110.867,110.295 111.682 C 111.065 112.498,115.930 117.358,121.104 122.482 C 126.279 127.607,130.892 132.229,131.356 132.753 C 131.820 133.277,132.409 133.907,132.664 134.153 C 137.936 139.225,188.419 189.849,189.300 190.947 C 189.983 191.798,192.045 194.025,193.883 195.896 C 199.568 201.685,199.587 201.484,192.700 208.301 C 189.785 211.186,183.323 217.654,178.341 222.673 C 173.359 227.693,168.859 232.183,168.341 232.650 C 167.823 233.118,165.043 235.908,162.163 238.850 C 159.283 241.793,156.493 244.578,155.963 245.039 C 155.433 245.501,153.746 247.301,152.212 249.039 C 150.679 250.778,146.015 255.650,141.847 259.867 C 137.679 264.084,134.108 267.822,133.910 268.175 C 133.650 268.640,46.840 355.908,18.295 384.400 C 17.082 385.610,14.883 388.040,13.408 389.800 C 8.656 395.468,3.158 400.000,1.032 400.000 C 0.152 400.000,0.000 400.177,0.000 401.200 L 0.000 402.400 200.000 402.400 L 400.000 402.400 400.000 401.200 C 400.000 400.275,399.820 400.000,399.216 400.000 C 398.785 400.000,398.020 399.581,397.516 399.070 C 397.012 398.558,395.854 397.568,394.942 396.870 C 392.583 395.062,315.497 317.837,310.200 311.974 C 307.780 309.295,282.580 283.822,254.200 255.368 C 215.283 216.349,202.568 203.370,202.469 202.568 C 202.286 201.084,202.691 199.702,203.547 198.890 C 207.462 195.175,213.340 189.332,214.746 187.756 C 218.770 183.246,239.353 162.413,292.071 109.489 C 322.800 78.640,349.350 51.888,351.071 50.040 C 352.792 48.192,359.960 40.860,367.000 33.746 C 374.040 26.632,381.510 18.964,383.600 16.706 C 391.313 8.372,395.710 4.800,398.255 4.800 L 400.000 4.800 400.000 2.400 L 400.000 0.000 200.000 0.000 L 0.000 0.000 0.000 2.200 " stroke="none" fill="#fbd404" fill-rule="evenodd"></path><path id="path3" d="M0.011 4.700 C 0.025 5.055,6.449 8.174,6.930 8.059 C 7.111 8.016,7.156 8.148,7.029 8.353 C 6.712 8.866,18.796 20.850,19.310 20.532 C 19.538 20.391,19.606 20.467,19.462 20.699 C 19.117 21.258,23.933 26.088,24.491 25.743 C 24.731 25.595,24.809 25.661,24.667 25.891 C 24.339 26.423,31.592 33.652,32.124 33.323 C 32.344 33.188,32.404 33.270,32.257 33.507 C 31.945 34.013,41.574 43.664,42.079 43.351 C 42.266 43.235,42.370 43.329,42.310 43.560 C 42.157 44.145,51.596 53.650,52.050 53.369 C 52.254 53.243,52.370 53.329,52.310 53.559 C 52.041 54.583,67.202 70.067,134.700 137.704 C 163.795 166.859,187.600 190.870,187.600 191.063 C 187.600 191.255,189.760 193.567,192.400 196.200 C 195.040 198.833,197.199 201.260,197.198 201.594 C 197.197 201.927,187.999 211.380,176.759 222.600 C 165.519 233.820,153.325 246.133,149.661 249.962 C 145.998 253.791,140.615 259.275,137.700 262.148 C 134.785 265.022,132.400 267.570,132.400 267.811 C 132.400 268.053,131.866 268.762,131.214 269.386 C 130.562 270.011,130.140 270.703,130.276 270.923 C 130.412 271.143,130.348 271.215,130.133 271.082 C 129.613 270.761,122.286 278.144,122.687 278.585 C 122.859 278.774,122.808 278.819,122.573 278.685 C 122.019 278.371,112.272 288.129,112.686 288.584 C 112.859 288.773,112.807 288.819,112.572 288.685 C 112.086 288.409,103.458 296.889,103.787 297.320 C 103.904 297.474,103.882 297.512,103.737 297.403 C 103.315 297.088,102.383 298.049,102.666 298.507 C 102.808 298.736,102.749 298.816,102.536 298.684 C 102.016 298.362,87.084 313.342,87.485 313.783 C 87.658 313.973,87.607 314.019,87.372 313.885 C 86.886 313.608,79.459 320.889,79.787 321.320 C 79.904 321.474,79.877 321.507,79.728 321.394 C 79.310 321.079,77.194 323.267,77.476 323.723 C 77.612 323.943,77.541 324.011,77.317 323.873 C 76.810 323.559,67.351 333.090,67.533 333.731 C 67.607 333.989,67.527 334.060,67.355 333.889 C 66.944 333.478,61.967 338.423,62.281 338.931 C 62.414 339.147,62.349 339.215,62.135 339.083 C 61.614 338.762,51.885 348.543,52.286 348.984 C 52.459 349.173,52.407 349.219,52.172 349.085 C 51.603 348.762,43.083 357.330,43.487 357.820 C 43.659 358.029,43.637 358.067,43.437 357.903 C 42.980 357.531,41.929 358.362,42.234 358.855 C 42.358 359.056,42.281 359.170,42.064 359.110 C 41.443 358.938,34.383 366.044,34.672 366.550 C 34.813 366.798,34.777 366.862,34.592 366.694 C 34.149 366.292,31.955 368.404,32.276 368.923 C 32.412 369.143,32.347 369.214,32.131 369.081 C 31.611 368.760,26.687 373.745,27.089 374.186 C 27.260 374.374,27.197 374.412,26.948 374.270 C 26.693 374.125,25.124 375.443,23.348 377.296 C 21.617 379.102,18.535 382.305,16.500 384.414 C 14.465 386.522,12.800 388.429,12.800 388.650 C 12.800 389.588,3.414 397.987,2.337 398.013 C 1.775 398.027,0.000 399.357,0.000 399.764 C 0.000 402.259,7.861 396.417,13.408 389.800 C 14.883 388.040,17.082 385.610,18.295 384.400 C 46.840 355.908,133.650 268.640,133.910 268.175 C 134.108 267.822,137.679 264.084,141.847 259.867 C 146.015 255.650,150.679 250.778,152.212 249.039 C 153.746 247.301,155.433 245.501,155.963 245.039 C 156.493 244.578,159.283 241.793,162.163 238.850 C 165.043 235.908,167.823 233.118,168.341 232.650 C 168.859 232.183,173.359 227.693,178.341 222.673 C 183.323 217.654,189.785 211.186,192.700 208.301 C 199.587 201.484,199.568 201.685,193.883 195.896 C 192.045 194.025,189.983 191.798,189.300 190.947 C 188.617 190.096,175.694 177.070,160.581 162.000 C 145.469 146.930,132.721 134.171,132.252 133.647 C 131.784 133.123,131.195 132.493,130.945 132.247 C 126.523 127.907,111.331 112.779,110.295 111.682 C 109.524 110.867,103.720 105.070,97.398 98.800 C 91.076 92.530,84.642 85.960,83.100 84.200 C 80.333 81.042,71.826 72.350,62.354 63.003 C 59.680 60.364,57.050 57.626,56.510 56.918 C 55.970 56.210,52.911 53.058,49.713 49.915 C 46.515 46.772,43.696 43.972,43.449 43.692 C 40.332 40.169,7.125 7.450,5.303 6.108 C 3.343 4.663,-0.024 3.768,0.011 4.700 M394.955 5.958 C 392.318 7.921,387.579 12.407,383.600 16.706 C 381.510 18.964,374.040 26.632,367.000 33.746 C 359.960 40.860,352.792 48.192,351.071 50.040 C 349.350 51.888,322.800 78.640,292.071 109.489 C 239.353 162.413,218.770 183.246,214.746 187.756 C 213.340 189.332,207.462 195.175,203.547 198.890 C 202.691 199.702,202.286 201.084,202.469 202.568 C 202.568 203.370,215.283 216.349,254.200 255.368 C 282.580 283.822,307.780 309.295,310.200 311.974 C 315.497 317.837,392.583 395.062,394.942 396.870 C 395.854 397.568,397.012 398.558,397.516 399.070 C 398.288 399.853,400.000 400.380,400.000 399.834 C 400.000 399.327,395.288 395.215,394.700 395.208 C 394.315 395.204,394.000 395.033,394.000 394.829 C 394.000 394.165,375.894 376.418,375.479 376.675 C 375.257 376.812,375.191 376.738,375.331 376.512 C 375.659 375.980,363.610 363.947,363.078 364.275 C 362.857 364.412,362.786 364.347,362.919 364.131 C 363.240 363.611,358.255 358.687,357.814 359.089 C 357.626 359.260,357.589 359.196,357.731 358.946 C 358.040 358.405,348.459 348.716,347.936 349.040 C 347.740 349.161,347.630 349.065,347.690 348.827 C 347.849 348.203,330.767 331.173,330.282 331.473 C 330.059 331.611,329.991 331.538,330.131 331.312 C 330.423 330.839,323.335 323.744,322.736 323.910 C 322.519 323.970,322.438 323.863,322.556 323.671 C 322.855 323.187,320.623 321.118,320.208 321.494 C 320.023 321.662,319.984 321.604,320.120 321.364 C 320.371 320.924,319.890 320.371,310.800 310.634 C 308.050 307.688,282.625 282.060,254.300 253.683 C 225.975 225.305,202.800 201.980,202.800 201.849 C 202.800 201.719,205.855 198.504,209.589 194.706 C 233.188 170.700,237.363 166.410,237.685 165.834 C 237.882 165.482,263.459 139.716,294.522 108.577 C 358.260 44.683,382.400 20.313,382.400 19.860 C 382.400 17.861,396.510 6.012,398.900 6.004 C 399.609 6.001,400.000 5.787,400.000 5.400 C 400.000 4.272,396.734 4.634,394.955 5.958 " stroke="none" fill="#d9c46c" fill-rule="evenodd"></path><path id="path4" d="" stroke="none" fill="#decc8c" fill-rule="evenodd"></path></g></svg>